# Blender 4.2.8 LTS
# www.blender.org
mtllib crystal_green.mtl
o Crystal_
v 0.100000 0.100000 -0.100000
v 0.000000 -0.100000 0.000000
v 0.100000 0.100000 0.100000
v 0.100000 0.326556 -0.100000
v -0.100000 0.100000 -0.100000
v -0.100000 0.326556 0.100000
v -0.100000 0.100000 0.100000
v 0.100000 0.326556 0.100000
v -0.100000 0.326556 -0.100000
v 0.000000 0.534854 0.000000
vn 0.6809 -0.2695 -0.6809
vn -0.0000 -1.0000 -0.0000
vn 0.6809 -0.2695 0.6809
vn 0.6824 0.2622 -0.6824
vn -0.6809 -0.2695 -0.6809
vn -0.6824 0.2622 0.6824
vn -0.6809 -0.2695 0.6809
vn 0.6824 0.2622 0.6824
vn -0.6824 0.2622 -0.6824
vn -0.0000 1.0000 -0.0000
vt 0.750000 0.557754
vt 0.500000 0.557754
vt 0.500000 0.281620
vt 0.750000 0.281620
vt 0.125000 0.793557
vt 0.000000 0.542916
vt 0.250000 0.542916
vt 0.625000 0.773778
vt 1.000000 0.557754
vt 1.000000 0.281620
vt 0.875000 0.773778
vt 0.375000 0.793557
vt 0.500000 0.542916
vt 0.500000 0.259724
vt 0.250000 0.259724
vt 0.375000 0.000000
vt 0.000000 0.259724
vt 0.125000 0.000000
vt 0.625000 0.000000
vt 0.875000 0.000000
s 1
usemtl crystal_green.png
f 5/1/5 7/2/7 6/3/6 9/4/9
f 2/5/2 3/6/3 7/7/7
f 2/8/2 7/2/7 5/1/5
f 3/9/3 1/1/1 4/4/4 8/10/8
f 2/11/2 1/1/1 3/9/3
f 2/12/2 5/7/5 1/13/1
f 4/14/4 9/15/9 10/16/10
f 1/13/1 5/7/5 9/15/9 4/14/4
f 7/7/7 3/6/3 8/17/8 6/15/6
f 6/15/6 8/17/8 10/18/10
f 9/4/9 6/3/6 10/19/10
f 8/10/8 4/4/4 10/20/10
