# Blender 4.2.8 LTS
# www.blender.org
mtllib crystal_bin.mtl
o Trash_Can
v 0.000000 -0.545501 -0.545502
v 0.000000 0.545501 -0.545502
v 0.208754 -0.545501 -0.503978
v 0.208754 0.545501 -0.503978
v 0.385728 -0.545501 -0.385728
v 0.385728 0.545501 -0.385728
v 0.503978 -0.545501 -0.208755
v 0.503978 0.545501 -0.208755
v 0.545501 -0.545501 -0.000000
v 0.545501 0.545501 -0.000000
v 0.503978 -0.545501 0.208754
v 0.503978 0.545501 0.208754
v 0.385728 -0.545501 0.385728
v 0.385728 0.545501 0.385728
v 0.208754 -0.545501 0.503978
v 0.208754 0.545501 0.503978
v 0.000000 -0.545501 0.545501
v 0.000000 0.545501 0.545501
v -0.208754 -0.545501 0.503978
v -0.208754 0.545501 0.503978
v -0.385728 -0.545501 0.385728
v -0.385728 0.545501 0.385728
v -0.503978 -0.545501 0.208754
v -0.503978 0.545501 0.208754
v -0.545501 -0.545501 -0.000000
v -0.545501 0.545501 -0.000000
v -0.503978 -0.545501 -0.208755
v -0.503978 0.545501 -0.208755
v -0.385728 -0.545501 -0.385728
v -0.385728 0.545501 -0.385728
v -0.208754 -0.545501 -0.503978
v -0.208754 0.545501 -0.503978
v 0.160382 0.545501 -0.387195
v 0.000000 0.545501 -0.419097
v 0.296346 0.545501 -0.296347
v 0.387195 0.545501 -0.160382
v 0.419097 0.545501 -0.000000
v 0.387195 0.545501 0.160381
v 0.296346 0.545501 0.296346
v 0.160382 0.545501 0.387195
v 0.000000 0.545501 0.419097
v -0.160382 0.545501 0.387195
v -0.296346 0.545501 0.296346
v -0.387195 0.545501 0.160381
v -0.419097 0.545501 -0.000000
v -0.387195 0.545501 -0.160382
v -0.296346 0.545501 -0.296347
v -0.160382 0.545501 -0.387195
v 0.160382 0.416028 -0.387195
v 0.000000 0.416028 -0.419097
v 0.296346 0.416028 -0.296347
v 0.387195 0.416028 -0.160382
v 0.419097 0.416028 -0.000000
v 0.387195 0.416028 0.160381
v 0.296346 0.416028 0.296346
v 0.160382 0.416028 0.387195
v 0.000000 0.416028 0.419097
v -0.160382 0.416028 0.387195
v -0.296346 0.416028 0.296346
v -0.387195 0.416028 0.160381
v -0.419097 0.416028 -0.000000
v -0.387195 0.416028 -0.160382
v -0.296346 0.416028 -0.296347
v -0.160382 0.416028 -0.387195
vn 0.1951 -0.0000 -0.9808
vn 0.5556 -0.0000 -0.8315
vn 0.8315 -0.0000 -0.5556
vn 0.9808 -0.0000 -0.1951
vn 0.9808 -0.0000 0.1951
vn 0.8315 -0.0000 0.5556
vn 0.5556 -0.0000 0.8315
vn 0.1951 -0.0000 0.9808
vn -0.1951 -0.0000 0.9808
vn -0.5556 -0.0000 0.8315
vn -0.8315 -0.0000 0.5556
vn -0.9808 -0.0000 0.1951
vn -0.9808 -0.0000 -0.1951
vn -0.8315 -0.0000 -0.5556
vn -0.0000 1.0000 -0.0000
vn -0.5556 -0.0000 -0.8315
vn -0.1951 -0.0000 -0.9808
vn -0.0000 -1.0000 -0.0000
vt 0.683200 0.407991
vt 0.683200 0.748779
vt 0.640602 0.748779
vt 0.640602 0.407991
vt 0.598003 0.748779
vt 0.598003 0.407991
vt 0.555405 0.748779
vt 0.555405 0.407991
vt 0.512806 0.748779
vt 0.512806 0.407991
vt 0.470208 0.748779
vt 0.470208 0.407991
vt 0.427609 0.748779
vt 0.427609 0.407991
vt 0.385011 0.748779
vt 0.385011 0.407991
vt 0.342412 0.748779
vt 0.342412 0.407991
vt 0.299814 0.748779
vt 0.299814 0.407991
vt 0.257215 0.748779
vt 0.257215 0.407991
vt 0.214617 0.748779
vt 0.214617 0.407991
vt 0.172018 0.748779
vt 0.172018 0.407991
vt 0.129420 0.748779
vt 0.129420 0.407991
vt 0.086821 0.748779
vt 0.086821 0.407991
vt 0.917018 0.398497
vt 0.899788 0.440096
vt 0.877554 0.425240
vt 0.890792 0.393281
vt 0.044223 0.748779
vt 0.044223 0.407991
vt 0.001624 0.748779
vt 0.001624 0.407991
vt 0.750000 0.490000
vt 0.841844 0.471731
vt 0.919706 0.419706
vt 0.971731 0.341844
vt 0.990000 0.250000
vt 0.971731 0.158156
vt 0.919706 0.080294
vt 0.841844 0.028269
vt 0.750000 0.010000
vt 0.658156 0.028269
vt 0.580294 0.080294
vt 0.528269 0.158156
vt 0.510000 0.250000
vt 0.528269 0.341844
vt 0.580294 0.419706
vt 0.658156 0.471731
vt 0.308489 0.710145
vt 0.349368 0.710145
vt 0.349368 0.742512
vt 0.308489 0.742512
vt 0.781326 0.262804
vt 0.826351 0.262804
vt 0.821135 0.289031
vt 0.786542 0.289031
vt 0.707889 0.440096
vt 0.690659 0.398497
vt 0.716885 0.393280
vt 0.730123 0.425240
vt 0.867950 0.471934
vt 0.826351 0.489164
vt 0.821135 0.462938
vt 0.853094 0.449700
vt 0.867950 0.280035
vt 0.899788 0.311873
vt 0.877554 0.326729
vt 0.853094 0.302269
vt 0.690659 0.353471
vt 0.707889 0.311873
vt 0.730123 0.326729
vt 0.716885 0.358688
vt 0.917018 0.353471
vt 0.890792 0.358688
vt 0.739727 0.280035
vt 0.754583 0.302268
vt 0.739727 0.471934
vt 0.754583 0.449700
vt 0.781326 0.489164
vt 0.786542 0.462938
vt 0.660381 0.887195
vt 0.500000 0.919097
vt 0.339619 0.887195
vt 0.203654 0.796346
vt 0.112805 0.660381
vt 0.080903 0.500000
vt 0.112805 0.339619
vt 0.203654 0.203654
vt 0.339619 0.112805
vt 0.500000 0.080903
vt 0.660381 0.112805
vt 0.796346 0.203654
vt 0.887195 0.339619
vt 0.919097 0.500000
vt 0.887195 0.660381
vt 0.796346 0.796346
vt 0.594641 0.710145
vt 0.635520 0.710145
vt 0.635520 0.742512
vt 0.594641 0.742512
vt 0.676399 0.710145
vt 0.676399 0.742512
vt 0.921673 0.710145
vt 0.962552 0.710145
vt 0.962552 0.742512
vt 0.921673 0.742512
vt 0.553763 0.710145
vt 0.553763 0.742512
vt 0.880794 0.710145
vt 0.880794 0.742512
vt 0.512884 0.710145
vt 0.512884 0.742512
vt 0.839915 0.710145
vt 0.839915 0.742512
vt 0.472005 0.710145
vt 0.472005 0.742512
vt 0.799036 0.710145
vt 0.799036 0.742512
vt 0.431126 0.710145
vt 0.431126 0.742512
vt 0.758157 0.710145
vt 0.758157 0.742512
vt 0.390247 0.710145
vt 0.390247 0.742512
vt 0.717278 0.710145
vt 0.717278 0.742512
s 0
usemtl Pedestal
f 1/1/1 2/2/1 4/3/1 3/4/1
f 3/4/2 4/3/2 6/5/2 5/6/2
f 5/6/3 6/5/3 8/7/3 7/8/3
f 7/8/4 8/7/4 10/9/4 9/10/4
f 9/10/5 10/9/5 12/11/5 11/12/5
f 11/12/6 12/11/6 14/13/6 13/14/6
f 13/14/7 14/13/7 16/15/7 15/16/7
f 15/16/8 16/15/8 18/17/8 17/18/8
f 17/18/9 18/17/9 20/19/9 19/20/9
f 19/20/10 20/19/10 22/21/10 21/22/10
f 21/22/11 22/21/11 24/23/11 23/24/11
f 23/24/12 24/23/12 26/25/12 25/26/12
f 25/26/13 26/25/13 28/27/13 27/28/13
f 27/28/14 28/27/14 30/29/14 29/30/14
f 10/31/15 8/32/15 36/33/15 37/34/15
f 29/30/16 30/29/16 32/35/16 31/36/16
f 31/36/17 32/35/17 2/37/17 1/38/17
f 1/39/18 3/40/18 5/41/18 7/42/18 9/43/18 11/44/18 13/45/18 15/46/18 17/47/18 19/48/18 21/49/18 23/50/18 25/51/18 27/52/18 29/53/18 31/54/18
f 41/55/17 40/56/17 56/57/17 57/58/17
f 20/59/15 18/60/15 41/61/15 42/62/15
f 30/63/15 28/64/15 46/65/15 47/66/15
f 6/67/15 4/68/15 33/69/15 35/70/15
f 16/71/15 14/72/15 39/73/15 40/74/15
f 26/75/15 24/76/15 44/77/15 45/78/15
f 12/79/15 10/31/15 37/34/15 38/80/15
f 22/81/15 20/59/15 42/62/15 43/82/15
f 32/83/15 30/63/15 47/66/15 48/84/15
f 8/32/15 6/67/15 35/70/15 36/33/15
f 18/60/15 16/71/15 40/74/15 41/61/15
f 4/68/15 2/85/15 34/86/15 33/69/15
f 28/64/15 26/75/15 45/78/15 46/65/15
f 14/72/15 12/79/15 38/80/15 39/73/15
f 24/76/15 22/81/15 43/82/15 44/77/15
f 2/85/15 32/83/15 48/84/15 34/86/15
f 33/103/9 34/104/9 50/105/9 49/106/9
f 34/104/8 48/107/8 64/108/8 50/105/8
f 42/109/1 41/110/1 57/111/1 58/112/1
f 35/113/10 33/103/10 49/106/10 51/114/10
f 43/115/2 42/109/2 58/112/2 59/116/2
f 36/117/11 35/113/11 51/114/11 52/118/11
f 44/119/3 43/115/3 59/116/3 60/120/3
f 37/121/12 36/117/12 52/118/12 53/122/12
f 45/123/4 44/119/4 60/120/4 61/124/4
f 38/125/13 37/121/13 53/122/13 54/126/13
f 46/127/5 45/123/5 61/124/5 62/128/5
f 39/129/14 38/125/14 54/126/14 55/130/14
f 47/131/6 46/127/6 62/128/6 63/132/6
f 40/56/16 39/129/16 55/130/16 56/57/16
f 48/107/7 47/131/7 63/132/7 64/108/7
usemtl lava_blue.png
f 49/87/15 50/88/15 64/89/15 63/90/15 62/91/15 61/92/15 60/93/15 59/94/15 58/95/15 57/96/15 56/97/15 55/98/15 54/99/15 53/100/15 52/101/15 51/102/15
